<svg xmlns="http://www.w3.org/2000/svg" width="26" height="26" viewBox="0 0 26 26">
  <metadata><?xpacket begin="﻿" id="W5M0MpCehiHzreSzNTczkc9d"?>
<x:xmpmeta xmlns:x="adobe:ns:meta/" x:xmptk="Adobe XMP Core 5.6-c138 79.159824, 2016/09/14-01:09:01        ">
   <rdf:RDF xmlns:rdf="http://www.w3.org/1999/02/22-rdf-syntax-ns#">
      <rdf:Description rdf:about=""/>
   </rdf:RDF>
</x:xmpmeta>
                                                                                                    
                                                                                                    
                                                                                                    
                                                                                                    
                                                                                                    
                                                                                                    
                                                                                                    
                                                                                                    
                                                                                                    
                                                                                                    
                                                                                                    
                                                                                                    
                                                                                                    
                                                                                                    
                                                                                                    
                                                                                                    
                                                                                                    
                                                                                                    
                                                                                                    
                                                                                                    
                           
<?xpacket end="w"?></metadata>
<defs>
    <style>
      .cls-1 {
        fill-rule: evenodd;
      }
    </style>
  </defs>
  <path id="Фигура_10" data-name="Фигура 10" class="cls-1" d="M983,730a13,13,0,0,1-13,13h0a13,13,0,0,1,0-26h0v0a13,13,0,0,1,13,13v0h0Zm-0.811,0h0v0A12.19,12.19,0,0,0,970,717.81v0h0a12.188,12.188,0,0,0,0,24.375h0A12.19,12.19,0,0,0,982.189,730h0Zm-14.315-1.525,0.021,0.023a2.428,2.428,0,0,0,1.7.691,0.327,0.327,0,0,1,.054,0,3.647,3.647,0,0,1,2.467,1.044l0.026,0.024a3.655,3.655,0,0,1,0,5.169h0a3.646,3.646,0,0,1-2.177,1.048V738a0.406,0.406,0,0,1-.812,0v-1.518a3.638,3.638,0,0,1-2.175-1.048h0a3.648,3.648,0,0,1-1.072-2.584,0.407,0.407,0,0,1,.813,0,2.832,2.832,0,0,0,.831,2.009l0,0a2.848,2.848,0,0,0,4.021,0h0a2.84,2.84,0,0,0,0-4.019l-0.018-.02a2.837,2.837,0,0,0-1.993-.812,0.49,0.49,0,0,1-.054,0,3.24,3.24,0,0,1-2.177-.925l-0.027-.025a3.234,3.234,0,0,1-.951-2.3h0a3.238,3.238,0,0,1,.951-2.3l0.027-.025a3.238,3.238,0,0,1,1.863-.9v-1.812a0.407,0.407,0,0,1,.813,0v1.811a3.238,3.238,0,0,1,1.891.927h0a3.236,3.236,0,0,1,.951,2.295,0.406,0.406,0,1,1-.812,0,2.43,2.43,0,0,0-.712-1.723l0,0a2.441,2.441,0,0,0-3.425-.021l-0.021.023a2.424,2.424,0,0,0-.715,1.723h0A2.431,2.431,0,0,0,967.872,728.475Zm4.021-4.02,0,0.571A0.4,0.4,0,0,0,971.893,724.455Z" transform="translate(-957 -717)"/>
</svg>
