<svg xmlns="http://www.w3.org/2000/svg" width="29" height="29" viewBox="0 0 29 29">
  <metadata><?xpacket begin="﻿" id="W5M0MpCehiHzreSzNTczkc9d"?>
<x:xmpmeta xmlns:x="adobe:ns:meta/" x:xmptk="Adobe XMP Core 5.6-c138 79.159824, 2016/09/14-01:09:01        ">
   <rdf:RDF xmlns:rdf="http://www.w3.org/1999/02/22-rdf-syntax-ns#">
      <rdf:Description rdf:about=""/>
   </rdf:RDF>
</x:xmpmeta>
                                                                                                    
                                                                                                    
                                                                                                    
                                                                                                    
                                                                                                    
                                                                                                    
                                                                                                    
                                                                                                    
                                                                                                    
                                                                                                    
                                                                                                    
                                                                                                    
                                                                                                    
                                                                                                    
                                                                                                    
                                                                                                    
                                                                                                    
                                                                                                    
                                                                                                    
                                                                                                    
                           
<?xpacket end="w"?></metadata>
<defs>
    <style>
      .cls-1 {
        fill-rule: evenodd;
      }
    </style>
  </defs>
  <path id="Фигура_13" data-name="Фигура 13" class="cls-1" d="M701.038,734.059a9.68,9.68,0,0,1-.83.727,1.454,1.454,0,0,1,.1.292c0.445,1.929-.622,8.112-7.845,9.908a0.453,0.453,0,0,1-.475-0.707c1.807-2.475,2.521-4.454,2.226-6.18-0.2.111-.394,0.223-0.582,0.338a0.443,0.443,0,0,1-.237.068,0.45,0.45,0,0,1-.32-0.133l-0.713-.711-1.333,1.329a0.451,0.451,0,0,1-.64,0l-4.453-4.439a0.451,0.451,0,0,1,0-.642l1.33-1.326-0.711-.709a0.452,0.452,0,0,1-.065-0.559c0.125-.2.245-0.41,0.363-0.625-1.717-.263-3.683.452-6.135,2.23a0.452,0.452,0,0,1-.705-0.477c1.806-7.216,8.011-8.27,9.944-7.818a1.5,1.5,0,0,1,.244.077,9.522,9.522,0,0,1,.682-0.768c6.713-6.691,14.2-9.707,17.047-6.87A4.024,4.024,0,0,1,709,720.032C709,723.732,705.875,729.239,701.038,734.059Zm-7.582,9.683a8.8,8.8,0,0,0,5.364-4.827,7.2,7.2,0,0,0,.637-3.474l-4.383,2.306C695.447,739.51,694.927,741.444,693.456,743.742ZM686.9,734.23l3.811,3.8,1.011-1.007-0.519-.517-3.293-3.282Zm2.212-8.782a7.882,7.882,0,0,0-3.03.672,8.8,8.8,0,0,0-4.822,5.336c2.307-1.469,4.249-1.987,6.017-1.615l2.312-4.366A3.849,3.849,0,0,0,689.111,725.448Zm18.18-7.743c-2.407-2.4-9.626.75-15.767,6.87a9.849,9.849,0,0,0-1.306,1.649l-1.841,3.474c-0.3.624-.6,1.229-0.929,1.785l6.018,6c0.7-.4,1.456-0.769,2.253-1.153a16.782,16.782,0,0,0,4.68-2.911c4.6-4.588,7.7-9.968,7.7-13.386A3.159,3.159,0,0,0,707.291,717.705Zm-4.071,7.969a2.743,2.743,0,0,1-3.86,0,2.715,2.715,0,0,1,0-3.851,2.742,2.742,0,0,1,3.86,0A2.715,2.715,0,0,1,703.22,725.674Zm-0.639-3.208a1.834,1.834,0,0,0-2.583,0,1.809,1.809,0,0,0,0,2.565,1.834,1.834,0,0,0,2.583,0A1.807,1.807,0,0,0,702.581,722.466ZM685.256,735.8a0.453,0.453,0,0,1,.64.642l-2.982,2.973a0.453,0.453,0,0,1-.64-0.642Zm1.564,1.559a0.453,0.453,0,1,1,.64.642l-4.529,4.514a0.455,0.455,0,0,1-.32.132,0.449,0.449,0,0,1-.321-0.133,0.453,0.453,0,0,1,0-.641Zm1.564,1.558a0.453,0.453,0,0,1,.639.642l-2.982,2.972a0.453,0.453,0,1,1-.64-0.641Z" transform="translate(-680 -716)"/>
</svg>
