<svg xmlns="http://www.w3.org/2000/svg" viewBox="0 0 2022 363.44"><defs><style>.cls-1{fill:#3f36ff;}.cls-2{fill:#fff;}</style></defs><title>Asset 2</title><g id="Layer_2" data-name="Layer 2"><g id="Слой_1" data-name="Слой 1"><rect class="cls-1" width="848.13" height="363.44"/><rect class="cls-2" x="194.69" y="86.89" width="18.85" height="9.42"/><rect class="cls-2" x="232.38" y="171.7" width="9.42" height="9.42"/><polygon class="cls-2" points="213.54 212.54 222.96 212.54 222.96 171.7 232.38 171.7 232.38 162.28 222.96 162.28 222.96 96.31 213.54 96.31 213.54 162.28 213.54 212.54"/><polygon class="cls-2" points="185.27 171.7 194.69 171.7 194.69 96.31 185.27 96.31 185.27 134.01 166.42 134.01 166.42 143.43 185.27 143.43 185.27 171.7"/><rect class="cls-2" x="138.15" y="134.01" width="18.85" height="9.42"/><rect class="cls-2" x="100.45" y="152.86" width="9.42" height="65.96"/><rect class="cls-2" x="232.38" y="218.82" width="9.42" height="9.42"/><polygon class="cls-2" points="204.11 265.94 128.72 265.94 128.72 247.09 119.3 247.09 119.3 275.36 125.58 275.36 213.54 275.36 213.54 265.94 213.54 247.09 204.11 247.09 204.11 265.94"/><polygon class="cls-2" points="213.54 228.24 213.54 247.09 222.96 247.09 222.96 237.67 232.38 237.67 232.38 228.24 222.96 228.24 213.54 228.24"/><rect class="cls-2" x="157" y="143.43" width="9.42" height="18.85"/><rect class="cls-2" x="241.81" y="181.13" width="9.42" height="37.69"/><rect class="cls-2" x="109.88" y="218.82" width="9.42" height="28.27"/><polygon class="cls-2" points="128.72 171.7 138.15 171.7 138.15 143.43 128.72 143.43 109.88 143.43 109.88 152.85 128.72 152.85 128.72 171.7"/><rect class="cls-2" x="400.75" y="189.37" width="9.42" height="9.42"/><rect class="cls-2" x="391.33" y="236.49" width="18.85" height="9.42"/><rect class="cls-2" x="391.33" y="161.1" width="9.42" height="28.27"/><rect class="cls-2" x="410.18" y="227.07" width="9.42" height="9.42"/><rect class="cls-2" x="429.02" y="208.22" width="9.42" height="9.42"/><rect class="cls-2" x="438.45" y="198.8" width="9.42" height="9.42"/><rect class="cls-2" x="381.91" y="198.8" width="18.85" height="9.42"/><rect class="cls-2" x="419.6" y="217.64" width="9.42" height="9.42"/><rect class="cls-2" x="400.75" y="132.83" width="9.42" height="28.27"/><path class="cls-2" d="M372.48,85.71v18.85h9.42V85.71Z"/><rect class="cls-2" x="466.72" y="217.64" width="9.42" height="28.27"/><path class="cls-2" d="M457.29,264.76H381.91v-9.42h9.42v-9.42H372.48v28.27h94.24V245.91h-9.42Z"/><polygon class="cls-2" points="476.14 161.1 476.14 198.79 457.3 198.79 457.3 208.22 476.14 208.22 476.14 217.64 485.57 217.64 485.57 161.1 476.14 161.1"/><path class="cls-2" d="M363.06,151.68v94.24h9.42V151.68Z"/><rect class="cls-2" x="372.48" y="132.83" width="9.42" height="18.85"/><path class="cls-2" d="M391.33,104.56h9.42V85.71H419.6v18.85h-9.42v28.27h9.42V114H429V76.29H381.91v9.42h9.42Z"/><path class="cls-2" d="M410.18,179.95v9.42H429v-9.42h18.85V198.8h9.42V151.68h9.42v-9.42H447.87v28.27H429V142.25h18.85v-9.42H419.6v47.12Z"/><path class="cls-2" d="M391.33,104.56h-9.42v28.27h9.42Z"/><rect class="cls-2" x="466.72" y="151.68" width="9.42" height="9.42"/><polygon class="cls-2" points="738.75 179.95 738.75 170.53 729.32 170.53 729.32 179.95 738.75 179.95"/><polygon class="cls-2" points="719.9 208.22 719.9 170.53 729.32 170.53 729.32 161.1 719.9 161.1 719.9 85.71 710.48 85.71 710.48 208.22 719.9 208.22"/><polygon class="cls-2" points="682.21 170.53 691.63 170.53 691.63 85.71 682.21 85.71 682.21 132.83 663.36 132.83 663.36 142.25 682.21 142.25 682.21 170.53"/><polygon class="cls-2" points="597.39 95.14 597.39 217.64 606.82 217.64 606.82 95.14 597.39 95.14"/><polygon class="cls-2" points="710.48 76.29 691.63 76.29 691.63 85.71 710.48 85.71 710.48 76.29"/><polygon class="cls-2" points="625.66 85.71 606.82 85.71 606.82 95.14 625.66 95.14 625.66 85.71"/><polygon class="cls-2" points="663.36 161.1 663.36 142.25 653.94 142.25 653.94 161.1 663.36 161.1"/><polygon class="cls-2" points="729.32 227.07 738.75 227.07 738.75 217.64 729.32 217.64 729.32 227.07"/><path class="cls-2" d="M710.48,227.07v18.85h9.42v-9.42h9.42v-9.42Z"/><polygon class="cls-2" points="738.75 179.95 738.75 217.64 748.17 217.64 748.17 179.95 738.75 179.95"/><path class="cls-2" d="M701.05,264.76H625.67V245.91h-9.42v28.27h94.24V245.91h-9.42v18.85Z"/><polygon class="cls-2" points="635.09 170.53 635.09 142.25 653.94 142.25 653.94 132.83 635.09 132.83 635.09 95.14 625.66 95.14 625.66 170.53 635.09 170.53"/><polygon class="cls-2" points="606.82 217.64 606.82 245.91 616.24 245.91 616.24 217.64 606.82 217.64"/><path class="cls-1" d="M1092.91,159,1117,239h4.72l15.91-133.75h35.05L1150.84,282.8h-52l-25.11-89.25h-5l-25.36,89.25h-52L969.6,105.29h35.55L1020.81,239h5L1049.65,159Z"/><path class="cls-1" d="M1201.82,133.88V102.06h35.8v31.82Zm35.3,148.92h-34.8V155h34.8Z"/><path class="cls-1" d="M1365.48,282.8l-30.33-59.91h-5L1309,246.25V282.8h-34.81V102.06H1309V205.73L1356.53,155h38.78L1359,195.29l43,87.51Z"/><path class="cls-1" d="M1424.92,133.88V102.06h35.8v31.82Zm35.3,148.92h-34.8V155h34.8Z"/><path class="cls-1" d="M1583.58,105.29q29.58,0,46,14.57T1646,160.58q0,16.69-6.84,28.77a47.43,47.43,0,0,1-19.52,18.8l26.6,74.64h-37.29l-23.87-66.63h-48V282.8h-37V105.29Zm-46.49,79.06h41.27q16.41,0,23.12-6.09T1608.2,161q0-12.43-7.58-17.78t-26-5.35h-37.54Z"/><path class="cls-1" d="M1725.49,286q-12.43,0-21.63-3.86a40.3,40.3,0,0,1-15.29-10.94,46,46,0,0,1-9.07-16.9,74.57,74.57,0,0,1-3-21.75V155h34.81V227.6q0,13.43,6.21,20.51t18.4,7.09a25.77,25.77,0,0,0,11.68-2.61,27,27,0,0,0,8.82-7,30.13,30.13,0,0,0,5.47-10.19,40.18,40.18,0,0,0,1.86-12.31V155h34.81V282.8h-33.81V270.86h-5q-4.23,6.47-12.93,10.81T1725.49,286Z"/><path class="cls-1" d="M1926.76,282.8l-30.33-59.91h-5l-21.13,23.37V282.8h-34.81V102.06h34.81V205.73L1917.81,155h38.78l-36.3,40.28,43,87.51Z"/><path class="cls-1" d="M1986.2,133.88V102.06H2022v31.82Zm35.3,148.92h-34.8V155h34.8Z"/></g></g></svg>