<svg xmlns="http://www.w3.org/2000/svg" viewBox="0 0 2027 373.44"><defs><style>.cls-1{fill:none;stroke:#fff;stroke-miterlimit:10;stroke-width:10px;}.cls-2{fill:#fff;}</style></defs><title>Asset 2</title><g id="Layer_2" data-name="Layer 2"><g id="Слой_1" data-name="Слой 1"><rect class="cls-1" x="5" y="5" width="848.13" height="363.44"/><rect class="cls-2" x="199.69" y="91.89" width="18.85" height="9.42"/><rect class="cls-2" x="237.38" y="176.7" width="9.42" height="9.42"/><polygon class="cls-2" points="218.54 217.54 227.96 217.54 227.96 176.7 237.38 176.7 237.38 167.28 227.96 167.28 227.96 101.31 218.54 101.31 218.54 167.28 218.54 217.54"/><polygon class="cls-2" points="190.27 176.7 199.69 176.7 199.69 101.31 190.27 101.31 190.27 139.01 171.42 139.01 171.42 148.43 190.27 148.43 190.27 176.7"/><rect class="cls-2" x="143.15" y="139.01" width="18.85" height="9.42"/><rect class="cls-2" x="105.45" y="157.86" width="9.42" height="65.96"/><rect class="cls-2" x="237.38" y="223.82" width="9.42" height="9.42"/><polygon class="cls-2" points="209.11 270.94 133.72 270.94 133.72 252.09 124.3 252.09 124.3 280.36 130.58 280.36 218.54 280.36 218.54 270.94 218.54 252.09 209.11 252.09 209.11 270.94"/><polygon class="cls-2" points="218.54 233.24 218.54 252.09 227.96 252.09 227.96 242.67 237.38 242.67 237.38 233.24 227.96 233.24 218.54 233.24"/><rect class="cls-2" x="162" y="148.43" width="9.42" height="18.85"/><rect class="cls-2" x="246.81" y="186.13" width="9.42" height="37.69"/><rect class="cls-2" x="114.88" y="223.82" width="9.42" height="28.27"/><polygon class="cls-2" points="133.72 176.7 143.15 176.7 143.15 148.43 133.72 148.43 114.88 148.43 114.88 157.85 133.72 157.85 133.72 176.7"/><rect class="cls-2" x="405.75" y="194.37" width="9.42" height="9.42"/><rect class="cls-2" x="396.33" y="241.49" width="18.85" height="9.42"/><rect class="cls-2" x="396.33" y="166.1" width="9.42" height="28.27"/><rect class="cls-2" x="415.18" y="232.07" width="9.42" height="9.42"/><rect class="cls-2" x="434.02" y="213.22" width="9.42" height="9.42"/><rect class="cls-2" x="443.45" y="203.8" width="9.42" height="9.42"/><rect class="cls-2" x="386.91" y="203.8" width="18.85" height="9.42"/><rect class="cls-2" x="424.6" y="222.64" width="9.42" height="9.42"/><rect class="cls-2" x="405.75" y="137.83" width="9.42" height="28.27"/><path class="cls-2" d="M377.48,90.71v18.85h9.42V90.71Z"/><rect class="cls-2" x="471.72" y="222.64" width="9.42" height="28.27"/><path class="cls-2" d="M462.29,269.76H386.91v-9.42h9.42v-9.42H377.48v28.27h94.24V250.91h-9.42Z"/><polygon class="cls-2" points="481.14 166.1 481.14 203.79 462.3 203.79 462.3 213.22 481.14 213.22 481.14 222.64 490.57 222.64 490.57 166.1 481.14 166.1"/><path class="cls-2" d="M368.06,156.68v94.24h9.42V156.68Z"/><rect class="cls-2" x="377.48" y="137.83" width="9.42" height="18.85"/><path class="cls-2" d="M396.33,109.56h9.42V90.71H424.6v18.85h-9.42v28.27h9.42V119H434V81.29H386.91v9.42h9.42Z"/><path class="cls-2" d="M415.18,184.95v9.42H434v-9.42h18.85V203.8h9.42V156.68h9.42v-9.42H452.87v28.27H434V147.25h18.85v-9.42H424.6v47.12Z"/><path class="cls-2" d="M396.33,109.56h-9.42v28.27h9.42Z"/><rect class="cls-2" x="471.72" y="156.68" width="9.42" height="9.42"/><polygon class="cls-2" points="743.75 184.95 743.75 175.53 734.32 175.53 734.32 184.95 743.75 184.95"/><polygon class="cls-2" points="724.9 213.22 724.9 175.53 734.32 175.53 734.32 166.1 724.9 166.1 724.9 90.71 715.48 90.71 715.48 213.22 724.9 213.22"/><polygon class="cls-2" points="687.21 175.53 696.63 175.53 696.63 90.71 687.21 90.71 687.21 137.83 668.36 137.83 668.36 147.25 687.21 147.25 687.21 175.53"/><polygon class="cls-2" points="602.39 100.14 602.39 222.64 611.82 222.64 611.82 100.14 602.39 100.14"/><polygon class="cls-2" points="715.48 81.29 696.63 81.29 696.63 90.71 715.48 90.71 715.48 81.29"/><polygon class="cls-2" points="630.66 90.71 611.82 90.71 611.82 100.14 630.66 100.14 630.66 90.71"/><polygon class="cls-2" points="668.36 166.1 668.36 147.25 658.94 147.25 658.94 166.1 668.36 166.1"/><polygon class="cls-2" points="734.32 232.07 743.75 232.07 743.75 222.64 734.32 222.64 734.32 232.07"/><path class="cls-2" d="M715.48,232.07v18.85h9.42v-9.42h9.42v-9.42Z"/><polygon class="cls-2" points="743.75 184.95 743.75 222.64 753.17 222.64 753.17 184.95 743.75 184.95"/><path class="cls-2" d="M706.05,269.76H630.67V250.91h-9.42v28.27h94.24V250.91h-9.42v18.85Z"/><polygon class="cls-2" points="640.09 175.53 640.09 147.25 658.94 147.25 658.94 137.83 640.09 137.83 640.09 100.14 630.66 100.14 630.66 175.53 640.09 175.53"/><polygon class="cls-2" points="611.82 222.64 611.82 250.91 621.24 250.91 621.24 222.64 611.82 222.64"/><path class="cls-2" d="M1097.91,164,1122,244h4.72l15.91-133.75h35.05L1155.84,287.8h-52l-25.11-89.25h-5l-25.36,89.25h-52L974.6,110.29h35.55L1025.81,244h5L1054.65,164Z"/><path class="cls-2" d="M1206.82,138.88V107.06h35.8v31.82Zm35.3,148.92h-34.8V160h34.8Z"/><path class="cls-2" d="M1370.48,287.8l-30.33-59.91h-5L1314,251.25V287.8h-34.81V107.06H1314V210.73L1361.53,160h38.78L1364,200.29l43,87.51Z"/><path class="cls-2" d="M1429.92,138.88V107.06h35.8v31.82Zm35.3,148.92h-34.8V160h34.8Z"/><path class="cls-2" d="M1588.58,110.29q29.58,0,46,14.57T1651,165.58q0,16.69-6.84,28.77a47.43,47.43,0,0,1-19.52,18.8l26.6,74.64h-37.29l-23.87-66.63h-48V287.8h-37V110.29Zm-46.49,79.06h41.27q16.41,0,23.12-6.09T1613.2,166q0-12.43-7.58-17.78t-26-5.35h-37.54Z"/><path class="cls-2" d="M1730.49,291q-12.43,0-21.63-3.86a40.3,40.3,0,0,1-15.29-10.94,46,46,0,0,1-9.07-16.9,74.57,74.57,0,0,1-3-21.75V160h34.81V232.6q0,13.43,6.21,20.51t18.4,7.09a25.77,25.77,0,0,0,11.68-2.61,27,27,0,0,0,8.82-7,30.13,30.13,0,0,0,5.47-10.19,40.18,40.18,0,0,0,1.86-12.31V160h34.81V287.8h-33.81V275.86h-5q-4.23,6.47-12.93,10.81T1730.49,291Z"/><path class="cls-2" d="M1931.76,287.8l-30.33-59.91h-5l-21.13,23.37V287.8h-34.81V107.06h34.81V210.73L1922.81,160h38.78l-36.3,40.28,43,87.51Z"/><path class="cls-2" d="M1991.2,138.88V107.06H2027v31.82Zm35.3,148.92h-34.8V160h34.8Z"/></g></g></svg>