<svg xmlns="http://www.w3.org/2000/svg" width="14" height="15" viewBox="0 0 14 15">
  <metadata><?xpacket begin="﻿" id="W5M0MpCehiHzreSzNTczkc9d"?>
<x:xmpmeta xmlns:x="adobe:ns:meta/" x:xmptk="Adobe XMP Core 5.6-c138 79.159824, 2016/09/14-01:09:01        ">
   <rdf:RDF xmlns:rdf="http://www.w3.org/1999/02/22-rdf-syntax-ns#">
      <rdf:Description rdf:about=""/>
   </rdf:RDF>
</x:xmpmeta>
                                                                                                    
                                                                                                    
                                                                                                    
                                                                                                    
                                                                                                    
                                                                                                    
                                                                                                    
                                                                                                    
                                                                                                    
                                                                                                    
                                                                                                    
                                                                                                    
                                                                                                    
                                                                                                    
                                                                                                    
                                                                                                    
                                                                                                    
                                                                                                    
                                                                                                    
                                                                                                    
                           
<?xpacket end="w"?></metadata>
<defs>
    <style>
      .cls-1 {
        fill: #111;
        fill-rule: evenodd;
      }
    </style>
  </defs>
  <path id="Фигура_19" data-name="Фигура 19" class="cls-1" d="M1282,314a6.858,6.858,0,0,1-2.8-13.178,0.644,0.644,0,0,1,.84.322,0.624,0.624,0,0,1-.33.823,5.731,5.731,0,1,0,4.58,0,0.624,0.624,0,0,1-.33-0.823,0.644,0.644,0,0,1,.84-0.322A6.858,6.858,0,0,1,1282,314Zm0-8.125a0.635,0.635,0,0,1-.64-0.625v-5.625a0.64,0.64,0,0,1,1.28,0v5.625A0.635,0.635,0,0,1,1282,305.875Z" transform="translate(-1275 -299)"/>
</svg>
