<svg xmlns="http://www.w3.org/2000/svg" width="20" height="16" viewBox="0 0 20 16">
  <metadata><?xpacket begin="﻿" id="W5M0MpCehiHzreSzNTczkc9d"?>
<x:xmpmeta xmlns:x="adobe:ns:meta/" x:xmptk="Adobe XMP Core 5.6-c138 79.159824, 2016/09/14-01:09:01        ">
   <rdf:RDF xmlns:rdf="http://www.w3.org/1999/02/22-rdf-syntax-ns#">
      <rdf:Description rdf:about=""/>
   </rdf:RDF>
</x:xmpmeta>
                                                                                                    
                                                                                                    
                                                                                                    
                                                                                                    
                                                                                                    
                                                                                                    
                                                                                                    
                                                                                                    
                                                                                                    
                                                                                                    
                                                                                                    
                                                                                                    
                                                                                                    
                                                                                                    
                                                                                                    
                                                                                                    
                                                                                                    
                                                                                                    
                                                                                                    
                                                                                                    
                           
<?xpacket end="w"?></metadata>
<defs>
    <style>
      .cls-1 {
        fill: #7e7e7e;
        fill-rule: evenodd;
      }
    </style>
  </defs>
  <path id="mail" class="cls-1" d="M1466.48,39.467a1.709,1.709,0,0,1-1.27.534h-16.42a1.709,1.709,0,0,1-1.27-.534,1.761,1.761,0,0,1-.52-1.284V29.158a5.874,5.874,0,0,0,1.13.989q4.035,2.8,5.54,3.921c0.43,0.318.77,0.566,1.04,0.744a6.042,6.042,0,0,0,1.05.546,3.179,3.179,0,0,0,1.23.278h0.02a3.179,3.179,0,0,0,1.23-.278,6.042,6.042,0,0,0,1.05-.546c0.27-.178.61-0.426,1.04-0.744q1.89-1.4,5.55-3.921a6.039,6.039,0,0,0,1.12-.989v9.024A1.762,1.762,0,0,1,1466.48,39.467Zm-1.39-10.536q-4.2,2.967-5.22,3.694c-0.08.053-.23,0.169-0.48,0.347s-0.44.322-.6,0.432-0.35.233-.58,0.369a3.487,3.487,0,0,1-.64.307,1.757,1.757,0,0,1-.56.1h-0.02a1.757,1.757,0,0,1-.56-0.1,3.487,3.487,0,0,1-.64-0.307c-0.23-.136-0.42-0.259-0.58-0.369s-0.36-.254-0.6-0.432-0.4-.294-0.48-0.347c-0.68-.485-1.65-1.176-2.92-2.074s-2.04-1.438-2.29-1.62a5.643,5.643,0,0,1-1.31-1.313,2.669,2.669,0,0,1-.61-1.552,2.314,2.314,0,0,1,.46-1.478,1.588,1.588,0,0,1,1.33-.591h16.42a1.7,1.7,0,0,1,1.26.534,1.771,1.771,0,0,1,.53,1.284,3,3,0,0,1-.55,1.716A5.321,5.321,0,0,1,1465.09,28.93Z" transform="translate(-1447 -24)"/>
</svg>
