<svg xmlns="http://www.w3.org/2000/svg" width="31" height="24" viewBox="0 0 31 24">
  <metadata><?xpacket begin="﻿" id="W5M0MpCehiHzreSzNTczkc9d"?>
<x:xmpmeta xmlns:x="adobe:ns:meta/" x:xmptk="Adobe XMP Core 5.6-c138 79.159824, 2016/09/14-01:09:01        ">
   <rdf:RDF xmlns:rdf="http://www.w3.org/1999/02/22-rdf-syntax-ns#">
      <rdf:Description rdf:about=""/>
   </rdf:RDF>
</x:xmpmeta>
                                                                                                    
                                                                                                    
                                                                                                    
                                                                                                    
                                                                                                    
                                                                                                    
                                                                                                    
                                                                                                    
                                                                                                    
                                                                                                    
                                                                                                    
                                                                                                    
                                                                                                    
                                                                                                    
                                                                                                    
                                                                                                    
                                                                                                    
                                                                                                    
                                                                                                    
                                                                                                    
                           
<?xpacket end="w"?></metadata>
<defs>
    <style>
      .cls-1 {
        fill-rule: evenodd;
      }
    </style>
  </defs>
  <path id="Фигура_12" data-name="Фигура 12" class="cls-1" d="M1312,718.439a0.468,0.468,0,0,1-.09.274l-15.5,22.081h0c-0.02.022-.04,0.046-0.06,0.065a0.482,0.482,0,0,1-.68,0l-5.81-5.761a0.473,0.473,0,0,1,0-.677,0.483,0.483,0,0,1,.68,0l5.41,5.356,15.08-21.486v-0.174l-28.63,8.237,5.92,5.869,17.11-11.3a0.484,0.484,0,0,1,.67.131,0.476,0.476,0,0,1-.13.664l-17.22,11.378v6.269l1.59-1.581a0.483,0.483,0,1,1,.69.675l-2.42,2.4a0.484,0.484,0,0,1-.83-0.337h0v-7.483l-6.64-6.579h0a0.408,0.408,0,0,1-.12-0.2,0.472,0.472,0,0,1,.33-0.593l29.99-8.629a0.486,0.486,0,0,1,.66.448v0.96h0Z" transform="translate(-1281 -717)"/>
</svg>
